<svg width="20" height="20" viewBox="0 0 20 20" fill="none" xmlns="http://www.w3.org/2000/svg">
<path d="M17.9475 19.4691L11.2144 12.7284C10.68 13.1564 10.0655 13.4952 9.37078 13.7449C8.67609 13.9945 7.93687 14.1193 7.15312 14.1193C5.21156 14.1193 3.56835 13.4462 2.22351 12.0998C0.87866 10.7534 0.206238 9.10837 0.206238 7.16461C0.206238 5.22085 0.87866 3.57579 2.22351 2.22942C3.56835 0.883059 5.21156 0.209877 7.15312 0.209877C9.09469 0.209877 10.7379 0.883059 12.0827 2.22942C13.4276 3.57579 14.1 5.22085 14.1 7.16461C14.1 7.94925 13.9753 8.6893 13.7259 9.38477C13.4766 10.0802 13.1381 10.6955 12.7106 11.2305L19.4438 17.9712L17.9475 19.4691ZM7.15312 11.9794C8.48906 11.9794 9.62461 11.5113 10.5598 10.5751C11.4949 9.63889 11.9625 8.50206 11.9625 7.16461C11.9625 5.82716 11.4949 4.69033 10.5598 3.75412C9.62461 2.8179 8.48906 2.34979 7.15312 2.34979C5.81718 2.34979 4.68163 2.8179 3.74648 3.75412C2.81132 4.69033 2.34374 5.82716 2.34374 7.16461C2.34374 8.50206 2.81132 9.63889 3.74648 10.5751C4.68163 11.5113 5.81718 11.9794 7.15312 11.9794Z" fill="#79747E"/>
</svg>
